<svg width="200" height="200" viewBox="0 0 200 200" xmlns="http://www.w3.org/2000/svg">
  <!-- Shell -->
  <path d="M100,30 C130,30 150,50 150,80 C150,110 130,130 100,130 C70,130 50,110 50,80 C50,50 70,30 100,30 Z" fill="#556B2F" stroke="#000000" stroke-width="2"/>

  <!-- Head -->
  <circle cx="100" cy="50" r="20" fill="#8B4513" stroke="#000000" stroke-width="2"/>

  <!-- Eyes -->
  <circle cx="95" cy="45" r="3" fill="#000000"/>
  <circle cx="105" cy="45" r="3" fill="#000000"/>

  <!-- Legs -->
  <path d="M80,80 L70,100 L70,120" stroke="#8B4513" stroke-width="5" fill="none"/>
  <path d="M120,80 L130,100 L130,120" stroke="#8B4513" stroke-width="5" fill="none"/>
  <path d="M60,80 L50,100 L50,120" stroke="#8B4513" stroke-width="5" fill="none"/>
  <path d="M140,80 L150,100 L150,120" stroke="#8B4513" stroke-width="5" fill="none"/>

  <!-- Tail -->
  <path d="M100,120 L100,140" stroke="#8B4513" stroke-width="5" fill="none"/>
</svg>
