<svg width="200" height="200" viewBox="0 0 200 200" xmlns="http://www.w3.org/2000/svg">
  <!-- Shell -->
  <path d="M100,50 C140,50 160,80 160,100 C160,120 140,150 100,150 C60,150 40,120 40,100 C40,80 60,50 100,50 Z" fill="#4CAF50" stroke="#2E7D32" stroke-width="2" />

  <!-- Shell pattern -->
  <polygon points="100,70 110,80 100,90 90,80" fill="#388E3C" />
  <polygon points="120,80 130,90 120,100 110,90" fill="#388E3C" />
  <polygon points="80,80 90,90 80,100 70,90" fill="#388E3C" />
  <polygon points="100,100 110,110 100,120 90,110" fill="#388E3C" />
  <polygon points="120,110 130,120 120,130 110,120" fill="#388E3C" />
  <polygon points="80,110 90,120 80,130 70,120" fill="#388E3C" />
  <polygon points="100,130 110,140 100,150 90,140" fill="#388E3C" />

  <!-- Head -->
  <path d="M160,80 C170,70 180,70 180,80 C180,90 170,90 160,80 Z" fill="#4CAF50" stroke="#2E7D32" stroke-width="2" />
  <circle cx="170" cy="75" r="2" fill="black" /> <!-- Eye -->
  <path d="M170,90 Q175,95 170,100" stroke="black" stroke-width="1" fill="none" /> <!-- Mouth -->

  <!-- Legs -->
  <path d="M70,120 C70,150 60,150 60,120 C60,110 70,110 70,120 Z" fill="#4CAF50" stroke="#2E7D32" stroke-width="2" />
  <path d="M130,120 C130,150 140,150 140,120 C140,110 130,110 130,120 Z" fill="#4CAF50" stroke="#2E7D32" stroke-width="2" />
  <path d="M90,120 C90,150 80,150 80,120 C80,110 90,110 90,120 Z" fill="#4CAF50" stroke="#2E7D32" stroke-width="2" />
  <path d="M110,120 C110,150 120,150 120,120 C120,110 110,110 110,120 Z" fill="#4CAF50" stroke="#2E7D32" stroke-width="2" />

  <!-- Tail -->
  <path d="M40,150 C30,160 20,150 30,140 C40,130 40,150 40,150 Z" fill="#4CAF50" stroke="#2E7D32" stroke-width="2" />
</svg>
