<svg width="200" height="200" viewBox="0 0 200 200" xmlns="http://www.w3.org/2000/svg">
  <!-- Head -->
  <ellipse cx="100" cy="70" rx="20" ry="15" fill="green" />
  <!-- Body -->
  <ellipse cx="100" cy="120" rx="40" ry="30" fill="green" />
  <!-- Shell -->
  <path d="M100,120 Q90,100 70,120 Q80,140 100,160 Q120,140 130,120 Q100,100 100,120" fill="brown" />
  <!-- Legs -->
  <line x1="70" y1="150" x2="50" y2="180" stroke="black" stroke-width="5" />
  <line x1="130" y1="150" x2="150" y2="180" stroke="black" stroke-width="5" />
  <line x1="70" y1="150" x2="90" y2="180" stroke="black" stroke-width="5" />
  <line x1="130" y1="150" x2="110" y2="180" stroke="black" stroke-width="5" />
  <!-- Tail -->
  <line x1="100" y1="120" x2="120" y2="100" stroke="black" stroke-width="5" />
  <!-- Eyes -->
  <circle cx="90" cy="65" r="2" fill="black" />
  <circle cx="110" cy="65" r="2" fill="black" />
  <!-- Mouth -->
  <path d="M95,75 Q100,80 105,75" stroke="black" stroke-width="2" fill="none" />
</svg>
