<svg width="200" height="200" viewBox="0 0 200 200" xmlns="http://www.w3.org/2000/svg">
  <!-- Turtle shell -->
  <ellipse cx="100" cy="120" rx="70" ry="50" fill="#4CAF50" stroke="#2E7D32" stroke-width="3"/>
  
  <!-- Shell pattern -->
  <path d="M100 70 Q130 90 100 120 Q70 90 100 70" fill="#81C784" stroke="#2E7D32" stroke-width="2"/>
  <path d="M100 70 Q90 110 70 120 Q90 130 100 120 Q110 130 130 120 Q110 110 100 70" fill="#81C784" stroke="#2E7D32" stroke-width="1" opacity="0.8"/>
  
  <!-- Head -->
  <circle cx="160" cy="100" r="20" fill="#4CAF50" stroke="#2E7D32" stroke-width="2"/>
  
  <!-- Eyes -->
  <circle cx="165" cy="95" r="3" fill="#000"/>
  <circle cx="155" cy="95" r="3" fill="#000"/>
  
  <!-- Legs -->
  <ellipse cx="50" cy="140" rx="15" ry="8" fill="#4CAF50" stroke="#2E7D32" stroke-width="2"/>
  <ellipse cx="150" cy="140" rx="15" ry="8" fill="#4CAF50" stroke="#2E7D32" stroke-width="2"/>
  <ellipse cx="50" cy="100" rx="8" ry="15" fill="#4CAF50" stroke="#2E7D32" stroke-width="2"/>
  <ellipse cx="150" cy="170" rx="8" ry="15" fill="#4CAF50" stroke="#2E7D32" stroke-width="2"/>
  
  <!-- Tail -->
  <path d="M30 120 Q10 130 30 140" fill="none" stroke="#2E7D32" stroke-width="3"/>
</svg>