<svg
    version="1.0"
    id="Layer_1"
    xmlns="http://www.w3.org/2000/svg"
    xmlns:xlink="http://www.w3.org/1999/xlink"
    viewBox="0 0 64 64"
    enable-background="new 0 0 64 64"
    xml:space="preserve"
    fill="#000000"
>
    <g id="SVGRepo_bgCarrier" stroke-width="0"></g>
    <g
        id="SVGRepo_tracerCarrier"
        stroke-linecap="round"
        stroke-linejoin="round"
    ></g>
    <g id="SVGRepo_iconCarrier">
        {" "}
        <g>
            {" "}
            <path
                fill="#B4CCB8"
                d="M32,2c-7.168,0-13,5.832-13,13c0,3.616,1.477,6.883,3.865,9.193c-1.186,1.168-2.865,1.935-4.865,1.935 c-4.418,0-8,3.582-8,8c0,2.209,1.791,4,4,4c1.098,0,2.086-0.438,2.828-1.121c1.098,0.684,2.367,1.121,3.672,1.121 c1.305,0,2.574-0.438,3.672-1.121C27.086,30.562,28.074,31,29.172,31c2.209,0,4-1.791,4-4c0-4.418-3.582-8-8-8 c-2.001,0-3.679,0.767-4.865,1.935C20.477,21.883,22,24.616,22,28c0,7.168,5.832,13,13,13c7.168,0,13-5.832,13-13 c0-7.168-5.832-13-13-13c-3.616,0-6.883,1.477-9.193,3.865C20.616,11.477,22,8.209,22,5c0-4.418-3.582-8-8-8 c-2.209,0-4,1.791-4,4c0,1.098,0.438,2.086,1.121,2.828C11.438,5.438,12.526,5,13.828,5c4.418,0,8,3.582,8,8 c0,1.098-0.438,2.086-1.121,2.828C19.438,16.526,18.35,17,17.048,17c-4.418,0-8,3.582-8,8c0,2.209,1.791,4,4,4 c1.098,0,2.086-0.438,2.828-1.121c1.098,0.684,2.367,1.121,3.672,1.121c1.305,0,2.574-0.438,3.672-1.121 C27.086,30.562,28.074,31,29.172,31c2.209,0,4-1.791,4-4c0-4.418-3.582-8-8-8c-2.001,0-3.679,0.767-4.865,1.935 C20.477,21.883,22,24.616,22,28c0,7.168,5.832,13,13,13c7.168,0,13-5.832,13-13C55,7.832,49.168,2,42,2C34.832,2,32,2,32,2z"
            ></path>{" "}
            <path
                fill="#A3C6B4"
                d="M32,2c-7.168,0-13,5.832-13,13c0,3.616,1.477,6.883,3.865,9.193c-1.186,1.168-2.865,1.935-4.865,1.935 c-4.418,0-8,3.582-8,8c0,2.209,1.791,4,4,4c1.098,0,2.086-0.438,2.828-1.121c1.098,0.684,2.367,1.121,3.672,1.121 c1.305,0,2.574-0.438,3.672-1.121C27.086,30.562,28.074,31,29.172,31c2.209,0,4-1.791,4-4c0-4.418-3.582-8-8-8 c-2.001,0-3.679,0.767-4.865,1.935C20.477,21.883,22,24.616,22,28c0,7.168,5.832,13,13,13c7.168,0,13-5.832,13-13 c0-7.168-5.832-13-13-13c-3.616,0-6.883,1.477-9.193,3.865C20.616,11.477,22,8.209,22,5c0-4.418-3.582-8-8-8 c-2.209,0-4,1.791-4,4c0,1.098,0.438,2.086,1.121,2.828C11.438,5.438,12.526,5,13.828,5c4.418,0,8,3.582,8,8 c0,1.098-0.438,2.086-1.121,2.828C19.438,16.526,18.35,17,17.048,17c-4.418,0-8,3.582-8,8c0,2.209,1.791,4,4,4 c1.098,0,2.086-0.438,2.828-1.121c1.098,0.684,2.367,1.121,3.672,1.121c1.305,0,2.574-0.438,3.672-1.121 C27.086,30.562,28.074,31,29.172,31c2.209,0,4-1.791,4-4c0-4.418-3.582-8-8-8c-2.001,0-3.679,0.767-4.865,1.935 C20.477,21.883,22,24.616,22,28c0,7.168,5.832,13,13,13c7.168,0,13-5.832,13-13C55,7.832,49.168,2,42,2C34.832,2,32,2,32,2z"
            ></path>{" "}
        </g>{" "}
    </g>
</svg>
