<?xml version="1.0" encoding="UTF-8"?>
<svg width="240" height="160" viewBox="0 0 240 160"
     xmlns="http://www.w3.org/2000/svg" stroke-linecap="round"
     stroke-linejoin="round">

  <!-- Colors -->
  <defs>
    <linearGradient id="shellGradient" x1="0%" y1="0%" x2="100%" y2="100%">
      <stop offset="0%"  stop-color="#4CAF50"/>
      <stop offset="100%" stop-color="#2E7D32"/>
    </linearGradient>
  </defs>

  <!-- Shadow -->
  <ellipse cx="120" cy="135" rx="80" ry="18" fill="#000" opacity="0.15"/>

  <!-- Legs -->
  <ellipse cx="60"  cy="118" rx="22" ry="12" fill="#6BBF59" stroke="#2E7D32" stroke-width="2"/>
  <ellipse cx="180" cy="118" rx="22" ry="12" fill="#6BBF59" stroke="#2E7D32" stroke-width="2"/>
  <ellipse cx="85"  cy="108" rx="15" ry="10" fill="#6BBF59" stroke="#2E7D32" stroke-width="2"/>
  <ellipse cx="155" cy="108" rx="15" ry="10" fill="#6BBF59" stroke="#2E7D32" stroke-width="2"/>

  <!-- Shell -->
  <ellipse cx="120" cy="90" rx="70" ry="45" fill="url(#shellGradient)" stroke="#1B5E20" stroke-width="3"/>

  <!-- Shell pattern -->
  <path d="
     M120 45
     l25 12
     l18 22
     l-18 28
     l-25 12
     l-25 -12
     l-18 -28
     l18 -22
     z"
     fill="none" stroke="#1B5E20" stroke-width="3"/>

  <!-- Head -->
  <circle cx="35" cy="75" r="25" fill="#6BBF59" stroke="#2E7D32" stroke-width="3"/>
  <!-- Eye -->
  <circle cx="30" cy="70" r="5" fill="#ffffff"/>
  <circle cx="30" cy="70" r="2" fill="#000000"/>
  <!-- Smile -->
  <path d="M24 78 q6 6 12 0" fill="none" stroke="#000" stroke-width="2"/>

</svg>
